Coordinates
version=1
nRows=29
nColumns=22
inDegrees=yes

Units are S.I. units (second, meters, Newtons, ...)
If the header above contains a line with 'inDegrees', this indicates whether rotational values are in degrees (yes) or radians (no).

endheader
time	pelvis_tilt	pelvis_list	pelvis_rotation	pelvis_tx	pelvis_ty	pelvis_tz	hip_flexion_r	hip_adduction_r	hip_rotation_r	knee_angle_r	ankle_angle_r	subtalar_angle_r	hip_flexion_l	hip_adduction_l	hip_rotation_l	knee_angle_l	ankle_angle_l	subtalar_angle_l	lumbar_extension	lumbar_bending	lumbar_rotation
      1.07000000	     -3.85711235	     -0.91543493	     -8.31356486	     -0.79438431	      0.89639758	      0.82645636	    -14.95355980	      0.06836505	     -8.49149240	    -15.83879789	     14.28651658	      8.90976566	     36.34229522	     -3.29125835	     -8.81625992	    -35.09030502	      4.11538539	     -5.41250338	     -8.54688119	     -4.91522692	      7.87756712
      1.08000000	     -3.92716437	     -0.59088649	     -8.11469838	     -0.78440417	      0.89771281	      0.82472179	    -14.81438768	     -0.49185576	     -8.51450773	    -16.83710476	     12.90522659	      9.26671211	     35.84360160	     -2.70622396	     -8.82620426	    -35.14531023	      4.22867023	     -5.33153559	     -8.09594224	     -5.33692850	      7.82513238
      1.09000000	     -4.00562892	     -0.28347023	     -7.93660984	     -0.77438113	      0.89916498	      0.82296959	    -14.54267730	     -1.04712002	     -8.52726829	    -18.02689150	     11.39092977	      9.60999302	     35.26595921	     -2.14453362	     -8.88412860	    -35.07831731	      4.47650058	     -5.27857906	     -7.62988181	     -5.73772269	      7.79433148
      1.10000000	     -4.09080712	      0.00919197	     -7.77372527	     -0.76438416	      0.90072914	      0.82118808	    -14.11342269	     -1.60251034	     -8.54996286	    -19.44584660	      9.75176418	      9.82251846	     34.62254654	     -1.59162381	     -8.95445993	    -34.89744861	      4.79138014	     -5.27536287	     -7.16184345	     -6.12034059	      7.77972116
      1.11000000	     -4.17610169	      0.27824729	     -7.61876551	     -0.75443004	      0.90237632	      0.81939206	    -13.53583202	     -2.14405608	     -8.57485230	    -21.08473890	      7.96593010	      9.86565005	     33.91926409	     -1.05303879	     -9.02432357	    -34.61964826	      5.17488037	     -5.29773134	     -6.70552126	     -6.47399757	      7.73588560
      1.12000000	     -4.23013151	      0.54649938	     -7.47449098	     -0.74459036	      0.90410022	      0.81756444	    -12.80728292	     -2.71567054	     -8.64118814	    -22.99931811	      6.08524811	      9.87272288	     33.14661754	     -0.49015729	     -9.05004075	    -34.26793391	      5.57109476	     -5.39967005	     -6.30803818	     -6.83183415	      7.72632274
      1.13000000	     -4.26209205	      0.79147056	     -7.31998653	     -0.73487031	      0.90583988	      0.81571118	    -11.94360124	     -3.27701694	     -8.71461314	    -25.14324673	      4.07367097	      9.69657648	     32.33655240	      0.07316175	     -9.02444353	    -33.87904839	      5.98242858	     -5.52141288	     -5.96601371	     -7.16407068	      7.66987697
      1.14000000	     -4.26320930	      1.02594169	     -7.14936391	     -0.72530290	      0.90756054	      0.81382122	    -10.94909079	     -3.84615046	     -8.79777803	    -27.52161663	      1.97198231	      9.39706737	     31.49542009	      0.65186230	     -8.93959656	    -33.46879626	      6.38196568	     -5.67200083	     -5.69457681	     -7.48587917	      7.56055402
      1.15000000	     -4.23586469	      1.24709530	     -6.96040399	     -0.71592016	      0.90919775	      0.81187457	     -9.82333665	     -4.42227084	     -8.88556631	    -30.12617192	     -0.14526423	      8.95220577	     30.63983106	      1.24815974	     -8.77126211	    -33.05794097	      6.80712054	     -5.94829260	     -5.49367619	     -7.78848886	      7.42552445
      1.16000000	     -4.16573774	      1.45526104	     -6.74148324	     -0.70673365	      0.91074910	      0.80986439	     -8.60163572	     -5.00052880	     -8.95504525	    -32.91526731	     -2.32152547	      8.48522316	     29.77145398	      1.85527170	     -8.53937259	    -32.67377645	      7.18416861	     -6.19354954	     -5.38719240	     -8.07451333	      7.22818299
      1.17000000	     -4.05728556	      1.65651805	     -6.49602534	     -0.69776445	      0.91217891	      0.80780103	     -7.28825525	     -5.58413767	     -8.99073356	    -35.85996336	     -4.49337540	      8.00506941	     28.89783602	      2.47478187	     -8.24449864	    -32.31875421	      7.54171736	     -6.45999873	     -5.36877062	     -8.35055205	      6.98385284
      1.18000000	     -3.91454515	      1.85332485	     -6.22172837	     -0.68901844	      0.91345968	      0.80565741	     -5.89328399	     -6.16900430	     -8.97732479	    -38.91399833	     -6.60846505	      7.49297370	     28.02975991	      3.10075435	     -7.92624955	    -32.00978173	      7.91518052	     -6.78694690	     -5.43332231	     -8.60739653	      6.67773047
      1.19000000	     -3.73347749	      2.04781185	     -5.92264532	     -0.68051205	      0.91462372	      0.80348584	     -4.43693842	     -6.74639474	     -8.89934657	    -42.02243721	     -8.62291666	      7.02959718	     27.15000514	      3.72884969	     -7.58129557	    -31.72213335	      8.26550273	     -7.08171563	     -5.58706277	     -8.85924881	      6.31154373
      1.20000000	     -3.53390295	      2.23784957	     -5.60342286	     -0.67225422	      0.91563044	      0.80126009	     -2.90786797	     -7.31264828	     -8.76769091	    -45.14183783	    -10.39777472	      6.57117039	     26.28222252	      4.35173173	     -7.22876072	    -31.46620506	      8.64252404	     -7.43231374	     -5.80239409	     -9.09030672	      5.93598133
      1.21000000	     -3.30678625	      2.42300388	     -5.26710841	     -0.66422890	      0.91655300	      0.79905835	     -1.33796389	     -7.84724856	     -8.56090183	    -48.20277959	    -11.89039539	      6.19836919	     25.39961795	      4.95477366	     -6.89262459	    -31.21616343	      8.99131907	     -7.71459888	     -6.08730655	     -9.31304682	      5.50078880
      1.22000000	     -3.08311535	      2.60201641	     -4.92218136	     -0.65643947	      0.91735492	      0.79685976	      0.29988555	     -8.34265897	     -8.27727635	    -51.17280959	    -12.92701829	      5.84281240	     24.53210487	      5.53491430	     -6.57255443	    -30.96964173	      9.36347977	     -8.02649428	     -6.39828497	     -9.51479555	      5.06315828
      1.23000000	     -2.86526170	      2.76732074	     -4.56580187	     -0.64884786	      0.91806951	      0.79467896	      1.98482255	     -8.77967512	     -7.92350608	    -53.99649527	    -13.45229460	      5.50870954	     23.67402857	      6.08029381	     -6.27772363	    -30.71912267	      9.73952462	     -8.32962558	     -6.72585126	     -9.68703434	      4.60999449
      1.24000000	     -2.67833469	      2.89473169	     -4.20188061	     -0.64143641	      0.91868922	      0.79254987	      3.72855438	     -9.12053960	     -7.50734639	    -56.63747491	    -13.43215176	      5.11605983	     22.85479890	      6.55963048	     -6.00066728	    -30.47991550	     10.16203054	     -8.72458605	     -7.03488094	     -9.80449586	      4.16838859
      1.25000000	     -2.48153279	      3.02611140	     -3.81163260	     -0.63411351	      0.91932901	      0.79041175	      5.45750706	     -9.42429225	     -7.06789010	    -59.04818998	    -12.95295526	      4.95365757	     22.00090767	      7.03067476	     -5.73332682	    -30.19457689	     10.49206862	     -8.91577318	     -7.36209733	     -9.91390797	      3.68538830
      1.26000000	     -2.32431442	      3.11986387	     -3.40378125	     -0.62687904	      0.91991328	      0.78829392	      7.21861656	     -9.63430701	     -6.60136159	    -61.21321144	    -12.09132521	      4.87734528	     21.18366342	      7.44211786	     -5.46618998	    -29.90890285	     10.84318631	     -9.13318047	     -7.64180122	     -9.96523461	      3.21331667
      1.27000000	     -2.19583564	      3.18127381	     -2.97078318	     -0.61969027	      0.92048854	      0.78616207	      8.98217297	     -9.76070347	     -6.11980652	    -63.10469449	    -10.97748923	      4.93886747	     20.37831936	      7.81146213	     -5.16539823	    -29.59969987	     11.18960806	     -9.34036223	     -7.87914501	     -9.96372002	      2.74695540
      1.28000000	     -2.08299283	      3.21587061	     -2.49717703	     -0.61251657	      0.92108625	      0.78399393	     10.71729561	     -9.81543697	     -5.64161949	    -64.70837367	     -9.67981371	      5.12568786	     19.57026937	      8.14786193	     -4.82476653	    -29.26961633	     11.51950909	     -9.49065775	     -8.08781382	     -9.91652879	      2.26448035
      1.29000000	     -1.97268859	      3.21942137	     -1.97696866	     -0.60532688	      0.92173286	      0.78179440	     12.39363583	     -9.79827367	     -5.17792969	    -66.01230924	     -8.24843331	      5.34755671	     18.74306624	      8.44602225	     -4.43946525	    -28.91992426	     11.83730700	     -9.56933965	     -8.28014377	     -9.82351150	      1.74459952
      1.30000000	     -1.90093518	      3.20428419	     -1.41744801	     -0.59815700	      0.92236918	      0.77955769	     14.06200871	     -9.71885894	     -4.70089156	    -67.03342222	     -6.76100455	      5.53642756	     17.93588063	      8.72694198	     -3.96506602	    -28.54117645	     12.11176430	     -9.65034467	     -8.41019255	     -9.70080256	      1.24023701
      1.31000000	     -1.81115311	      3.16095681	     -0.80617398	     -0.59093071	      0.92308664	      0.77729292	     15.62648543	     -9.57593358	     -4.23818890	    -67.74422196	     -5.20116674	      5.66732134	     17.08281631	      8.96567594	     -3.46450012	    -28.13796729	     12.38314521	     -9.67970332	     -8.54294423	     -9.53948559	      0.67634575
      1.32000000	     -1.74525920	      3.11453235	     -0.14987398	     -0.58369161	      0.92380462	      0.77498632	     17.14858929	     -9.40085261	     -3.76804825	    -68.17323933	     -3.62479974	      5.69991655	     16.22759133	      9.20162163	     -2.87796198	    -27.69542265	     12.59708361	     -9.72877877	     -8.62986982	     -9.37147882	      0.10004823
      1.33000000	     -1.66935301	      3.05159073	      0.54268457	     -0.57640055	      0.92457128	      0.77267152	     18.57163850	     -9.17914630	     -3.28765057	    -68.30254464	     -2.05142418	      5.68670215	     15.33208222	      9.40404049	     -2.26322222	    -27.21734467	     12.80504462	     -9.76662115	     -8.71019462	     -9.18428214	     -0.50908580
      1.34000000	     -1.58264279	      2.97760027	      1.25777642	     -0.56907073	      0.92536715	      0.77037601	     19.89693937	     -8.91428838	     -2.78031071	    -68.14483598	     -0.51570342	      5.54524075	     14.39759741	      9.57890997	     -1.60537778	    -26.70416180	     13.01605187	     -9.82613025	     -8.78541283	     -8.98899239	     -1.12896713
      1.35000000	     -1.52086657	      2.88714902	      1.98310022	     -0.56172717	      0.92611545	      0.76813058	     21.16684654	     -8.59673465	     -2.22153903	    -67.71099345	      0.91766558	      5.58762998	     13.48137089	      9.70622479	     -0.96772193	    -26.18035953	     13.22328454	     -9.81848388	     -8.81661145	     -8.78247573	     -1.76365509
